<?xml version="1.0" encoding="utf-8"?><svg viewBox="0 0 149 152" xmlns="http://www.w3.org/2000/svg" xmlns:xlink="http://www.w3.org/1999/xlink"><style>:root>svg{display:none}:root>svg:target{display:block}</style><svg viewBox="0 0 38 38" id="airplane" xmlns="http://www.w3.org/2000/svg"><path d="m30.317 11.633-4.87 4.572 4.63 12.732-3.472 3.472-6.917-10.125-3.5 3.18v3.473l-3.472 3.472-2.054-6.055-6.049-2.047 3.473-3.473h3.472l3.473-3.472-10.418-6.945 3.473-3.472 12.732 4.63 4.588-4.853-.098.082a3.472 3.472 0 1 1 4.91 4.911l.099-.082Z"/></svg><svg viewBox="0 0 9 16" id="arrow-right" xmlns="http://www.w3.org/2000/svg"><path d="m1 1 6.963 6.963L1 14.926"/></svg><svg viewBox="0 0 38 38" id="bicycle" xmlns="http://www.w3.org/2000/svg"><path d="M30.095 11.575A2.315 2.315 0 0 0 27.78 9.26h-5.788l8.102 13.89"/><path d="M30.094 28.937a5.787 5.787 0 1 0 0-11.575 5.787 5.787 0 0 0 0 11.575ZM6.946 28.937a5.787 5.787 0 1 0 0-11.575 5.787 5.787 0 0 0 0 11.575ZM6.945 9.26h4.051L19.1 23.15"/><path d="M24.61 13.89H13.697l-6.752 9.26"/></svg><svg viewBox="0 0 149 150" id="face-1" xmlns="http://www.w3.org/2000/svg"><circle cx="60.806" cy="60.806" r="60.806" transform="matrix(-1 0 0 1 136 18.91)"/><path d="M65.597 45.439S39.08 49.596 41.091 87.456c.007.14-3.066 2.185-3.307 2.403-2.143 1.942-3.94 4.43-4.727 7.339-2.8 10.36 7.21 21.035 15.304 23.869 3.024 1.058 6.22 1.572 9.422 1.665 20.816.607 48.376-12.649 49.791-38.538.051-.929.063-1.859.039-2.786-.125-4.916-1.309-9.703-3.094-14.148.001 0-11.584-28.792-38.922-21.821Z"/><path d="M40.42 87.856c.287.705.573 1.606.654 2.12.342 2.211-.413 4.493-1.724 6.133-1.245 1.558-3.023 2.568-4.744 2.949-.581.129-1.285.195-1.9.215.646-6.4 5.847-10.24 7.713-11.417ZM77.8 104.677c-4.927-1.062-7.985-6.262-6.832-11.615 1.153-5.352 6.08-8.83 11.007-7.768 4.925 1.062 7.984 6.262 6.83 11.614-1.152 5.353-6.08 8.831-11.006 7.769Z" opacity=".5"/><path opacity=".3" d="M53.685 89.705s-4.207-4.01-7.463-.24Z"/><path d="M92.906 109.686c14.004 7.033 26.713-10.6 22.641-20.511-2.597-6.322-10.169-6.814-14.556-1.04-2.59 3.409-4.684 7.765-5.874 11.933"/><path opacity=".3" d="M104.44 93.952c-1.802 1.837-3.25 4.56-5.03 6.08.329-2.542.854-5.258 2.086-7.549 1.252-2.327 3.528-4.244 5.846-4.086 2.872.196 5.237 3.548 5.541 6.587-.182-1.819-3.833-3.05-5.226-2.878-2.182 4.121-3.027 12.243-3.027 12.243-1.818-4.598-1.082-8.214-.19-10.397Z"/><mask id="da" maskUnits="userSpaceOnUse" x="20" y="51" width="35" height="51"><path d="M41.822 74.234c1.453-10.832 6.862-18.727 12.211-19.703l-23.616-3.234-10.294 36.476 12.716 13.641c-.807-6.467 5.316-11.788 8.478-13.64-.404-2.668.168-10.139.505-13.54Z"/></mask><g mask="url(#da)"><path d="M35.168 83.471c1.288-10.958 11.306-16.806 16.204-17.741-.984-5.33-3.077-5.002-7.253-4.174-14.59 2.893-16.951 15.682-16.813 22.198 5.43.797 7.587.769 7.862-.283Z"/><ellipse cx="3.924" cy="2.061" rx="3.924" ry="2.061" transform="matrix(1.01788 -.0479 .15734 .97082 26.974 81.804)"/><path opacity=".6" fill-rule="evenodd" clip-rule="evenodd" d="M35.209 83.154C36.65 72.4 46.522 66.656 51.373 65.73c.148-1.308-3.476-.718-7.414.74-10.127 3.75-12.919 9.377-12.78 15.894l.046.007c.035 1.112.14 2.585.39 3.246 2.206-.103 3.85-1.083 3.67-2.188a1.319 1.319 0 0 0-.076-.275Z"/><path d="M40.02 86.999c.975-11.14 10.703-17.395 15.511-18.505-1.115-5.363-3.172-4.962-7.27-3.984-14.317 3.416-16.303 16.444-15.99 23.038 5.378.625 7.506.525 7.75-.55Z"/><ellipse cx="3.892" cy="2.075" rx="3.892" ry="2.075" transform="matrix(1.01116 -.08315 .18018 .97119 31.889 85.585)"/><path opacity=".6" fill-rule="evenodd" clip-rule="evenodd" d="M40.05 86.675c1.133-10.936 10.719-17.081 15.48-18.181.11-1.33-3.449-.611-7.296.997-9.89 4.134-12.494 9.926-12.181 16.52l.046.005c.065 1.125.209 2.613.473 3.274 2.173-.178 3.768-1.225 3.562-2.338a1.35 1.35 0 0 0-.084-.277Z"/><path d="M44.449 95.029c-2.019-11.35 5.392-20.336 9.576-22.808-2.447-5.014-4.256-4.03-7.813-1.892-12.43 7.468-10.855 20.984-8.832 27.45 5.17-.909 7.125-1.614 7.069-2.75Z"/><ellipse cx="3.858" cy="2.09" rx="3.858" ry="2.09" transform="matrix(.9276 -.37358 .41982 .9076 36.51 95.935)"/><path opacity=".6" fill-rule="evenodd" clip-rule="evenodd" d="M44.395 94.698c-1.82-11.194 5.488-20.03 9.631-22.477-.246-1.352-3.37.374-6.529 3.067-8.12 6.923-9.02 13.42-6.998 19.887l.044-.008c.356 1.1.881 2.537 1.3 3.12 1.977-.796 3.186-2.29 2.702-3.338a1.41 1.41 0 0 0-.15-.25Z"/><path opacity=".5" d="M29.009 73.761c-.043-.33.883-2.067 1.351-2.895l6.908 2.634 5.923 5.876c-.126 2.257-.805 6.945-2.511 7.642-1.706.697-3.539.437-4.593.179-.425-.538-1.146-5.016-.657-9.231-2.406-.28-6.368-3.792-6.421-4.205Z"/><path d="M34.554 70.743C36.49 59.88 46.837 54.638 51.782 53.996c-.667-5.378-2.776-5.176-6.993-4.598-14.735 2.02-17.851 14.647-18.1 21.16 5.373 1.118 7.528 1.218 7.865.185Z"/><ellipse cx="3.924" cy="2.061" rx="3.924" ry="2.061" transform="matrix(1.01894 .0127 .09948 .97845 26.473 68.591)"/><path opacity=".6" fill-rule="evenodd" clip-rule="evenodd" d="M34.61 70.426c2.078-10.648 12.273-15.795 17.17-16.431.225-1.297-3.427-.923-7.446.298-10.33 3.141-13.451 8.593-13.7 15.106l.047.01c-.03 1.113-.012 2.589.198 3.264 2.208.028 3.906-.853 3.793-1.966a1.312 1.312 0 0 0-.061-.281Z"/><path d="M39.186 74.552c1.634-11.062 11.716-16.728 16.581-17.55-.795-5.42-2.872-5.142-7.02-4.41-14.495 2.56-17.25 15.447-17.33 22.047 5.333.944 7.463.97 7.77-.087Z"/><ellipse cx="3.892" cy="2.075" rx="3.892" ry="2.075" transform="matrix(1.01432 -.0229 .12226 .98017 31.153 72.656)"/><path opacity=".6" fill-rule="evenodd" clip-rule="evenodd" d="M39.236 74.228C41.017 63.38 50.95 57.816 55.767 57.001c.19-1.32-3.406-.815-7.342.562-10.118 3.54-13.06 9.166-13.14 15.767l.047.008c-.002 1.127.053 2.62.278 3.297 2.18-.05 3.834-1 3.694-2.123a1.346 1.346 0 0 0-.068-.284Z"/><path d="M44.344 82.83c-1.342-11.45 6.589-19.979 10.912-22.197-2.146-5.15-4.01-4.276-7.687-2.354-12.85 6.716-12.08 20.302-10.444 26.877 5.215-.6 7.208-1.187 7.22-2.326Z"/><ellipse cx="3.857" cy="2.09" rx="3.857" ry="2.09" transform="matrix(.94816 -.3178 .36523 .93092 36.365 83.263)"/><path opacity=".6" fill-rule="evenodd" clip-rule="evenodd" d="M44.307 82.495c-1.15-11.281 6.668-19.665 10.948-21.862-.165-1.365-3.386.172-6.699 2.673-8.516 6.428-9.801 12.86-8.165 19.436l.046-.006c.29 1.12.729 2.586 1.113 3.193 2.02-.677 3.316-2.097 2.894-3.172a1.404 1.404 0 0 0-.137-.262Z"/><path opacity=".5" d="m32.435 55.44 1.211-1.212v-.91l5.652 1.718 8.275 11.317-5.349 6.971c-3.633.647-6.627-.606-7.67-1.313l2.523-9.397c-2.523-.606-2.825-3.132-2.926-3.536-.081-.324.437-1.55.706-2.122-.565-.243-1.85-1.112-2.422-1.516Z"/></g><path d="M39.947 56.218c6.774-8.703 18.37-8.506 23.043-6.764 1.916-5.068-.043-5.874-4.043-7.333-13.974-5.096-22.614 4.615-25.87 10.26 4.232 3.498 6.09 4.594 6.87 3.837Z"/><ellipse cx="3.925" cy="2.06" rx="3.925" ry="2.06" transform="matrix(.89509 .48713 -.3681 .91206 33.803 50.54)"/><path opacity=".6" fill-rule="evenodd" clip-rule="evenodd" d="M40.146 55.965c6.8-8.447 18.215-8.236 22.843-6.511.803-1.042-2.601-2.418-6.725-3.214-10.6-2.049-15.902 1.316-19.157 6.96l.037.031c-.545.97-1.217 2.283-1.346 2.979 1.94 1.056 3.852 1.07 4.27.032.036-.087.062-.18.078-.277Z"/><path d="M42.267 61.752c6.601-9.02 18.159-9.322 22.845-7.776 1.823-5.165-.143-5.89-4.154-7.18C46.945 42.29 38.502 52.4 35.356 58.202c4.276 3.325 6.148 4.344 6.911 3.551Z"/><ellipse cx="3.893" cy="2.074" rx="3.893" ry="2.074" transform="matrix(.90761 .45351 -.34874 .92419 36.048 56.324)"/><path opacity=".6" fill-rule="evenodd" clip-rule="evenodd" d="M42.465 61.491c6.63-8.764 18.01-9.045 22.65-7.515.783-1.08-2.633-2.312-6.755-2.933-10.6-1.597-15.824 2.005-18.97 7.806l.037.029c-.527.996-1.174 2.343-1.291 3.046 1.951.975 3.857.907 4.257-.152a1.35 1.35 0 0 0 .072-.28Z"/><path d="M41.904 70.919c4.15-10.755 15.139-14.593 19.996-14.536.503-5.558-1.553-5.655-5.702-5.673-14.495-.063-20.146 12.313-21.764 18.892 4.893 1.907 6.93 2.318 7.47 1.317Z"/><ellipse cx="3.857" cy="2.09" rx="3.857" ry="2.09" transform="matrix(.98681 .16188 -.11081 .99384 34.645 67.574)"/><path opacity=".6" fill-rule="evenodd" clip-rule="evenodd" d="M42.026 70.605c4.24-10.516 15.063-14.28 19.873-14.222.49-1.285-3.076-1.43-7.171-.766-10.528 1.707-14.663 6.796-16.28 13.376l.042.016c-.265 1.126-.56 2.628-.503 3.344 2.102.345 3.91-.306 4.038-1.453.01-.097.01-.196.001-.295Z"/><path d="M112.239 81.411c-2.504-12.262-14.475-19.186-20.146-20.428.618-5.897 3.034-5.446 7.871-4.353 16.901 3.819 20.803 18.163 21.262 25.418-6.113.665-8.574.546-8.987-.637Z"/><ellipse cx="4.585" cy="2.223" rx="4.585" ry="2.223" transform="matrix(-.9967 -.08126 -.08107 .9967 121.42 79.889)"/><path opacity=".6" fill-rule="evenodd" clip-rule="evenodd" d="M112.163 81.053c-2.662-12.038-14.454-18.84-20.07-20.07-.292-1.463 3.893-.658 8.52 1.128 11.895 4.59 15.61 10.975 16.069 18.23l-.054.005c.065 1.238.084 2.874-.138 3.602-2.524-.206-4.489-1.365-4.389-2.589.008-.104.029-.206.062-.306Z"/><path d="M103.813 87.23c2.777-12.204-5.27-23.46-9.922-26.935 2.995-5.115 5.01-3.706 8.964-.71 13.818 10.466 11.454 25.143 8.88 31.94-5.842-1.922-8.034-3.048-7.922-4.296Z"/><ellipse cx="4.586" cy="2.222" rx="4.586" ry="2.222" transform="matrix(-.87398 -.48596 -.48509 .87447 112.804 89.639)"/><path opacity=".6" fill-rule="evenodd" clip-rule="evenodd" d="M103.892 86.873c2.542-12.065-5.393-23.136-10-26.578.337-1.453 3.816 1.01 7.294 4.55 8.94 9.1 9.69 16.45 7.115 23.246l-.051-.017c-.451 1.154-1.109 2.653-1.611 3.223-2.213-1.23-3.525-3.099-2.93-4.172a1.34 1.34 0 0 1 .183-.252Z"/><path d="M95.183 89.478c2.99-12.152-4.86-23.547-9.452-27.103 3.084-5.062 5.074-3.618 8.976-.554 13.633 10.705 11.015 25.34 8.323 32.09-5.808-2.023-7.98-3.187-7.847-4.433Z"/><ellipse cx="4.586" cy="2.222" rx="4.586" ry="2.222" transform="matrix(-.86538 -.50113 -.50024 .86589 104.13 92.044)"/><path opacity=".6" fill-rule="evenodd" clip-rule="evenodd" d="M95.268 89.123c2.751-12.019-4.99-23.226-9.536-26.748.362-1.447 3.798 1.077 7.214 4.677 8.78 9.253 9.402 16.615 6.71 23.366l-.051-.017c-.472 1.146-1.155 2.632-1.667 3.194-2.192-1.27-3.471-3.16-2.857-4.223.052-.09.115-.173.187-.25Z"/><path d="M87.57 91.092c5.003-11.468-.803-24.03-4.725-28.315 3.896-4.465 5.613-2.704 8.94.978 11.621 12.865 6.562 26.842 2.766 33.038-5.38-2.98-7.325-4.496-6.982-5.7Z"/><ellipse cx="4.587" cy="2.222" rx="4.587" ry="2.222" transform="matrix(-.76782 -.64067 -.63978 .76856 95.95 95.14)"/><path opacity=".6" fill-rule="evenodd" clip-rule="evenodd" d="M87.713 90.755c4.747-11.377-.984-23.736-4.868-27.979.603-1.364 3.562 1.707 6.318 5.834 7.086 10.61 6.452 17.972 2.655 24.168l-.048-.027c-.658 1.05-1.584 2.399-2.183 2.865-1.946-1.623-2.886-3.703-2.1-4.646a1.32 1.32 0 0 1 .226-.215Z"/><path d="M89.154 86.561c.323-.647.538-1.886.606-2.425 5.954-6.972 18.489-23.987 19.78-23.34 1.292.646 5.114 4.412 6.056 5.456l-4.845 3.132c.606 2.122.404 5.76-1.211 6.568-1.291.646-4.306.74-5.651.707l-.505 3.233c-.168.54-.848 1.698-2.22 2.021-1.373.324-3.667-.135-4.643-.404.081.808-.706 3.166-1.11 4.244-1.857.889-4.945.91-6.257.808Z"/><path d="M107.632 64.545c-5.701-11.138-19.09-14.59-24.885-14.262-.986-5.846 1.462-6.062 6.415-6.31 17.304-.864 24.91 11.904 27.298 18.77-5.71 2.283-8.113 2.83-8.828 1.802Z"/><ellipse cx="4.585" cy="2.223" rx="4.585" ry="2.223" transform="matrix(-.98185 .18966 .18923 .98193 116.066 60.61)"/><path opacity=".6" fill-rule="evenodd" clip-rule="evenodd" d="M107.46 64.223c-5.792-10.882-18.977-14.264-24.717-13.94-.674-1.33 3.574-1.68 8.51-1.203 12.69 1.224 17.98 6.375 20.368 13.24a1.996 1.996 0 0 0-.049.02c.394 1.174.852 2.745.833 3.505-2.486.48-4.69-.107-4.923-1.313a1.392 1.392 0 0 1-.022-.31Z"/><path d="M101.075 72.415c-.598-12.502-11.368-21.18-16.782-23.279 1.514-5.732 3.833-4.916 8.445-3.094 16.117 6.368 17.777 21.141 17.12 28.38-6.142-.28-8.556-.775-8.783-2.007Z"/><ellipse cx="4.585" cy="2.223" rx="4.585" ry="2.223" transform="matrix(-.97242 -.23322 -.2327 .97255 110.382 72.319)"/><path opacity=".6" fill-rule="evenodd" clip-rule="evenodd" d="M101.054 72.05c-.786-12.304-11.4-20.835-16.76-22.913-.066-1.49 3.947-.053 8.246 2.422 11.052 6.362 13.746 13.24 13.089 20.48l-.054-.003c-.125 1.233-.356 2.853-.687 3.538-2.462-.59-4.227-2.037-3.941-3.231.024-.101.06-.199.107-.292Z"/><path d="M93.366 76.901c-.38-12.51-10.998-21.375-16.374-23.567 1.613-5.705 3.917-4.849 8.497-2.946 16.004 6.647 17.406 21.447 16.624 28.674-6.137-.388-8.542-.925-8.747-2.161Z"/><ellipse cx="4.585" cy="2.223" rx="4.585" ry="2.223" transform="matrix(-.96821 -.25014 -.24958 .96835 102.672 76.968)"/><path opacity=".6" fill-rule="evenodd" clip-rule="evenodd" d="M93.35 76.537c-.572-12.318-11.035-21.033-16.36-23.203-.038-1.491 3.949.016 8.204 2.565 10.94 6.554 13.514 13.478 12.73 20.705a76.055 76.055 0 0 1-.052-.003c-.147 1.23-.407 2.846-.75 3.525-2.451-.634-4.19-2.111-3.884-3.3.026-.1.064-.197.113-.29Z"/><path d="M86.465 80.503C88.21 68.11 79.248 57.57 74.32 54.497c2.556-5.349 4.682-4.114 8.874-1.461 14.645 9.268 13.52 24.092 11.525 31.081-5.982-1.424-8.26-2.362-8.254-3.614Z"/><ellipse cx="4.586" cy="2.222" rx="4.586" ry="2.222" transform="matrix(-.9117 -.41085 -.41004 .91207 95.625 82.148)"/><path opacity=".6" fill-rule="evenodd" clip-rule="evenodd" d="M86.514 80.14c1.52-12.235-7.314-22.6-12.193-25.642.214-1.476 3.888.686 7.65 3.92 9.671 8.317 11.034 15.578 9.039 22.567l-.053-.012c-.353 1.188-.883 2.736-1.335 3.346-2.31-1.04-3.773-2.791-3.27-3.91a1.32 1.32 0 0 1 .162-.269Z"/><path d="M100.963 46.549c-.565-.324-2.456-.876-3.33-1.112L85.016 66.96c1.05 1.293 1.581 5.456 1.716 7.376 3.027-.303 6.156-2.223 6.66-3.233.404-.809-2.32-6.5-3.734-8.589 4.34.404 6.46-2.122 6.964-3.334.404-.97-.74-2.897-1.615-4.345 5.248-1.86 6.157-6.298 5.955-8.285Z"/><path d="M91.644 52.391c-9.65-7.956-23.306-5.801-28.495-3.196-3.224-4.974-1.063-6.145 3.385-8.341 15.539-7.673 27.583 1.022 32.497 6.373-4.334 4.367-6.323 5.824-7.387 5.164Z"/><ellipse cx="4.586" cy="2.222" rx="4.586" ry="2.222" transform="matrix(-.82564 .5642 .5633 .82625 97.826 45.426)"/><path opacity=".6" fill-rule="evenodd" clip-rule="evenodd" d="M91.361 52.163c-9.632-7.686-23.075-5.548-28.214-2.968-1.146-.953 2.614-2.963 7.333-4.488 12.132-3.921 19.03-1.297 23.944 4.054a6.55 6.55 0 0 0-.037.038c.828.922 1.871 2.182 2.156 2.887-2.092 1.43-4.348 1.766-5.039.752a1.325 1.325 0 0 1-.143-.275Z"/><path d="M88.11 60.43c-8.732-8.956-22.541-8.296-27.982-6.269-2.666-5.294-.39-6.224 4.268-7.925 16.278-5.941 27.31 4.01 31.616 9.863-4.781 3.87-6.916 5.103-7.902 4.332Z"/><ellipse cx="4.586" cy="2.222" rx="4.586" ry="2.222" transform="matrix(-.88195 .47135 .47048 .8824 95.009 54.177)"/><path opacity=".6" fill-rule="evenodd" clip-rule="evenodd" d="M87.853 60.172c-8.743-8.685-22.338-8.018-27.726-6.011-1.036-1.072 2.92-2.662 7.776-3.666 12.485-2.582 19.058.776 23.364 6.629a7.519 7.519 0 0 0-.041.033c.723 1.006 1.623 2.372 1.83 3.104-2.234 1.194-4.513 1.283-5.09.2a1.325 1.325 0 0 1-.113-.29Z"/><path d="M84.715 70.294c-5.975-10.993-19.445-14.112-25.23-13.64-1.131-5.82 1.311-6.097 6.257-6.467 17.277-1.293 25.196 11.283 27.753 18.086-5.651 2.425-8.04 3.032-8.78 2.021Z"/><ellipse cx="4.585" cy="2.223" rx="4.585" ry="2.223" transform="matrix(-.97685 .21394 .21346 .97695 93.05 66.151)"/><path opacity=".6" fill-rule="evenodd" clip-rule="evenodd" d="M84.537 69.976c-6.06-10.736-19.325-13.79-25.055-13.323-.706-1.313 3.531-1.768 8.478-1.414 12.716.91 18.132 5.928 20.689 12.731l-.049.021c.424 1.165.92 2.724.92 3.484-2.474.542-4.692.009-4.954-1.19a1.32 1.32 0 0 1-.03-.31Z"/><path d="M47.531 96.704c-.608.35-4.858-5-7.688-3.373-.955.55-1.684 1.487-2.232 2.5-1.202 2.227-1.614 4.933-1.13 7.43.686 3.53 3.063 6.42 5.858 8.335 7.522 5.153 13.489 4.179 21.517 1.196 6.319-2.347 14.929-7.18 13.145-15.899-3.14-15.348-29.462-.194-29.47-.19Z"/><path d="M69.308 95.723c-2.045 1.272-4.533 1.403-6.766.895-.427-.097-.77.262-.876.675-1.09 4.245-7.27 6.46-10.37 3.739-.24-.212-.666-.262-.918-.022-1.673 1.59-4.353 2.022-6.321.946-2.779-1.52-2.765-5.79-2.008-8.762 2.449.75 5.02 3.776 5.482 3.509.007-.004 16.165-9.304 24.672-5.949-.18 2.061-1.125 3.867-2.895 4.969ZM46.131 112.233c4.42-4.065 9.855-6.336 15.365-7.947 4.713-1.379 10.02-2.272 14.79-.904-2.21 4.756-7.899 7.726-12.43 9.41-7.023 2.609-12.468 3.681-18.756.46.342-.341.676-.693 1.031-1.019ZM60.042 83.332c.004 2.4 1.255 4.347 3.853 3.948 1.87-.502 3.114-1.823 3.11-4.34-.006-2.636-1.538-4.348-3.127-4.35-2.124-.005-3.84 2.342-3.836 4.742ZM42.335 83.288c.003 1.609.73 3.337 2.589 3.138 1.56-.167 1.959-2.22 1.957-3.23-.004-1.768-.888-3.438-2.177-3.44-1.386-.003-2.372 1.924-2.369 3.532ZM58.879 71.959c2.504-1.243 5.633-1.128 8.145.29.81.457 1.332 1.55.917 2.476-.383.856-1.394 1.394-2.26.904a7.718 7.718 0 0 0-.799-.396c-.085-.036-.303-.079-.388-.144l-.119-.034a7.555 7.555 0 0 0-1.317-.231c-.118.015-.266-.007-.377-.003a7.012 7.012 0 0 0-1.282.16c-.13.04-.26.077-.387.123a7.347 7.347 0 0 0-.796.34c-.81.402-1.951-.166-2.26-1.082-.339-1.008.056-1.972.923-2.403ZM41.423 72.833c1.498-.815 3.216-.998 4.762-.55.418.12.798.485.977.888.176.397.212.965.038 1.397-.18.448-.488.874-.922 1.087-.44.216-.89.271-1.343.14-.075-.021-.15-.034-.226-.052a4.558 4.558 0 0 0-.71-.023 4.804 4.804 0 0 0-.848.21c-.098.044-.197.084-.292.135-.41.223-.923.276-1.343.14-.402-.129-.815-.475-.977-.888-.168-.427-.224-.935-.038-1.397.185-.46.489-.851.922-1.087Z"/><path fill-rule="evenodd" clip-rule="evenodd" d="m31.331 81.23 9.893-.357.101-2.122-10.039.458.045 2.02Z"/><path fill-rule="evenodd" clip-rule="evenodd" d="M66.62 68.592c5.487.866 9.297 6.499 8.318 12.73-.98 6.231-6.333 10.417-11.819 9.551-5.486-.866-9.297-6.499-8.317-12.73.98-6.23 6.333-10.417 11.819-9.55Zm10.466 10.544c-.105-6.193-4.214-11.603-10.151-12.54-6.725-1.061-12.978 4.06-14.106 11.236v.004a7.13 7.13 0 0 0-.676-.234c-.734-.214-1.658-.345-2.62-.144-.123-2.526-.856-4.845-2.049-6.677-1.482-2.276-3.715-3.844-6.369-3.983-2.65-.14-5.071 1.18-6.85 3.274-1.777 2.095-2.963 5.013-3.188 8.254-.225 3.241.547 6.269 2.028 8.544 1.483 2.276 3.715 3.844 6.37 3.983 2.65.14 5.071-1.18 6.849-3.274 1.733-2.042 2.902-4.865 3.17-8.006.69-.284 1.424-.227 2.1-.03.422.123.79.293 1.059.437-.047 6.338 4.104 11.934 10.152 12.89 6.725 1.06 12.978-4.06 14.106-11.237.023-.144.043-.289.062-.433l17.43-2.814c3.27-.453 6.534-.303 8.944.508 2.418.813 3.694 3.806 3.732 5.665l1.998-.049c-.064-3.09-2.303-6.594-5.094-7.533-2.796-.941-6.395-1.073-9.857-.591l-.01.001-17.03 2.75Zm-31.27-7.24c1.216 1.87 1.902 4.448 1.704 7.293-.198 2.844-1.236 5.339-2.71 7.076-1.475 1.738-3.336 2.67-5.226 2.57-1.887-.098-3.593-1.213-4.81-3.08-1.217-1.87-1.902-4.448-1.704-7.293.197-2.844 1.236-5.34 2.71-7.076 1.475-1.738 3.336-2.67 5.226-2.57 1.886.098 3.593 1.213 4.81 3.08Z"/></svg><svg viewBox="0 0 148 152" id="face-2" xmlns="http://www.w3.org/2000/svg"><circle cx="60.806" cy="60.806" r="60.806" transform="matrix(-1 0 0 1 131 29.91)"/><path d="M82.787 45.261s26.322 4.127 24.326 41.707c-.007.14 3.043 2.169 3.282 2.386 2.127 1.927 3.912 4.396 4.693 7.284 2.779 10.284-7.157 20.88-15.192 23.693-3.001 1.05-6.173 1.56-9.352 1.653-20.662.603-48.019-12.556-49.424-38.254a34.54 34.54 0 0 1-.039-2.766c.125-4.879 1.3-9.631 3.072-14.043-.001 0 11.498-28.58 38.634-21.66Z"/><path d="M107.778 87.365c-.285.7-.569 1.594-.649 2.106-.34 2.194.409 4.459 1.711 6.087 1.235 1.546 3 2.549 4.709 2.927.577.128 1.275.193 1.886.214-.641-6.353-5.804-10.165-7.657-11.334ZM70.675 104.062c4.89-1.054 7.926-6.216 6.781-11.529-1.144-5.313-6.036-8.765-10.925-7.711-4.89 1.054-7.926 6.216-6.781 11.529 1.144 5.313 6.036 8.765 10.925 7.711Z" opacity=".5"/><path opacity=".3" d="M94.612 89.201s4.175-3.98 7.408-.238l-7.408.238Z"/><path d="M55.68 109.035c-13.9 6.98-26.515-10.522-22.474-20.36 2.578-6.276 10.094-6.764 14.449-1.032 2.57 3.383 4.65 7.707 5.83 11.844"/><path opacity=".3" d="M44.231 93.417c1.788 1.823 3.226 4.527 4.993 6.035-.326-2.524-.848-5.22-2.071-7.493-1.242-2.31-3.502-4.213-5.802-4.057-2.852.195-5.2 3.522-5.501 6.538.18-1.805 3.805-3.026 5.188-2.855 2.166 4.09 3.004 12.152 3.004 12.152 1.805-4.564 1.074-8.154.19-10.32Z"/><path d="M92.105 56.593c-6.512 9.026-21.238 27.581-41.474 34.2-1.37-2.34-3.807-4.793-8.215-4.713-5.51.1-7.513 4.112-7.513 4.112s-6.411 10.732 8.415 17.552c4.107.802 5.41.802 8.715-.602 2.238 1.738 9.337 7.663 11.821 8.625-.634 3.377-1.754 11.795-.231 15.647-2.906.267-9.987 1.745-15.597-1.304-.565-3.435-1.061-7.933-.177-9.648-1.056 1.727-2.96 5.67-2.96 7.943-3.206-1.103-10.338-4.173-13.223-7.623-4.475-21.062-6.08-72.112 39.2-76.425 3.975-.468 14.106-.06 20.838 4.513 8.415 5.717 12.622 13.34 14.225 20.962-3.439-1.605-11.02-6.5-13.825-13.24ZM108.634 128.405c-1.363-1.926-.568-10.665 0-13.64-5.61 4.713-8.916 7.02-20.436 7.321 2.003 3.009 9.817 4.112 10.719 4.513l1.602-1.103v1.605c2.164.722 6.312 1.17 8.115 1.304Z"/><mask id="ea" maskUnits="userSpaceOnUse" x="70" y="44" width="36" height="26"><path d="M91.202 48.67c-6.732-4.574-16.362-4.781-20.336-4.313 1.097 5.95 4.483 18.615 13.825 21.664 2.739-3.554 6.009-6.862 7.413-9.428 2.805 6.74 10.385 11.634 13.824 13.239-1.602-7.622-6.31-15.445-14.726-21.162Z"/></mask><g mask="url(#ea)"><path d="M89.686 55.553s-1.658-1.968-5.275-1.64c0 0 2.562-1.392 4.22-1.228 0 0-4.522-3.361-11.153-1.23 0 0 4.672-3.278 8.365-2.869 0 0-3.918-1.72-6.405-1.31 0 0 1.96-2.46 4.52-2.378 0 0-2.034-3.607-5.2-4.754 0 0 6.33 1.804 7.988 3.115 3.693 1.557 7.084 6.148 7.084 6.148-1.13-.656-2.94-.492-2.94-.492 2.94 1.804 5.2 5.163 5.2 5.163-1.43-.983-3.164-.655-3.164-.655 2.788 2.787 3.692 6.393 3.692 6.393-.376-1.147-3.09-2.54-3.09-2.54 1.055 1.885 1.281 4.917 1.281 4.917l-2.26-2.951s-4.597 3.852-5.803 4.344c0 0 3.466-3.607 3.692-5.246 0 0-5.2 1.393-9.344 1.968.001-.002 5.804-4.428 8.592-4.755Z"/></g><path d="M78.078 65.419c-2.805 3.544-11.941 12.156-26.046 18.254 4.474-2.809 15.948-10.391 26.046-18.254ZM40.812 83.673c8.174-17.332 24.777-27.147 32.056-29.889-18.753 3.21-31.255 21.731-35.162 30.59.721-.32 2.371-.601 3.106-.701ZM36.604 104.634c.4.502 1.563 1.284 2.204 1.605-.258 4.398-.65 12.933-.45 16.719.054.535.104 1.018.15 1.435-.068-.326-.116-.817-.15-1.435-.376-3.799-.892-10.193-.752-13.71-.735 2.675-1.983 3.571-1.102 14.643-.935-7.154-2.384-14.924.1-19.257ZM103.623 118.676c.561-.241 1.503-.903 1.903-1.204-.721 1.204-.434 7.255-.2 10.13-.481-.401-.801-1.905-.902-2.607-.32 1.043-.935 1.103-.801 2.607-.882-2.006-.1-5.717 0-8.926ZM58.543 117.071c-.962 8.746-.5 11.133.3 14.844h-4.007c-1.442-7.061 2.238-10.431 3.707-14.844ZM99.11 98.84c1.871.051 3.666-.486 5.212-2.096.809-.842 1.629-1.305 2.79-.585 2.779 1.725 3.433 6.033 2.686 8.922-.82 3.17-3.29 5.726-6.137 7.393-7.66 4.485-13.537 3.475-21.376.608-6.17-2.256-14.512-6.804-12.397-14.632 2.618-9.691 13.904-5.038 20.271-2.424 2.704 1.112 5.927 2.729 8.95 2.813Z"/><mask id="eb" maskUnits="userSpaceOnUse" x="69" y="92" width="42" height="24"><path d="M99.11 98.84c1.871.051 3.666-.485 5.212-2.096.809-.842 1.629-1.305 2.79-.585 2.779 1.725 3.433 6.033 2.686 8.922-.82 3.17-3.29 5.726-6.137 7.393-7.66 4.485-13.537 3.476-21.376.608-6.17-2.256-14.512-6.804-12.397-14.631 2.618-9.692 13.904-5.039 20.271-2.424 2.704 1.11 5.927 2.728 8.95 2.812Z"/></mask><g mask="url(#eb)"><path fill-rule="evenodd" clip-rule="evenodd" d="m73.55 109.604 8.02-20.286 1.117.443-8.02 20.286-1.116-.443Zm16.479 6.554 5.54-21.286 1.161.304-5.54 21.286-1.161-.304Zm16.486-5.139-3.056-15.606 1.178-.232 3.056 15.606-1.178.232Z"/></g><path d="M88.101 82.874c-.004 2.383-1.246 4.316-3.825 3.92-1.855-.498-3.091-1.81-3.086-4.308.005-2.617 1.526-4.316 3.103-4.319 2.108-.004 3.813 2.325 3.808 4.707Z"/><path fill-rule="evenodd" clip-rule="evenodd" d="M101.351 81.372c1.132.067 2.691-.052 3.738-.779a4.68 4.68 0 0 1 .59 2.238c-.003 1.597-.724 3.312-2.569 3.115-1.549-.166-1.945-2.203-1.943-3.206.001-.473.066-.94.184-1.368Z"/><path d="M88.467 70.367c-2.752-.354-5.65.77-7.549 2.915-.612.692-.75 1.887-.06 2.621.635.68 1.757.856 2.412.115.197-.223.403-.434.622-.63.068-.062.26-.173.318-.262l.1-.07a7.534 7.534 0 0 1 1.161-.645c.116-.024.247-.092.353-.125a6.975 6.975 0 0 1 1.151-.254l.104-.012c.134-.004.268-.011.402-.01.287.002.572.024.857.06.89.115 1.777-.789 1.771-1.748-.008-1.056-.69-1.833-1.642-1.955ZM105.976 77.979c-1.486.809-3.191.99-4.726.546-.414-.12-.793-.481-.97-.881-.175-.394-.21-.959-.038-1.387.179-.445.485-.868.916-1.08.437-.213.883-.268 1.333-.139.074.022.149.034.224.052.234.026.469.034.705.023.285-.043.565-.112.842-.208.096-.044.195-.083.289-.135a1.757 1.757 0 0 1 1.334-.14c.399.13.808.474.969.883.167.424.222.929.038 1.387-.183.457-.485.845-.916 1.079Z"/></svg><svg viewBox="0 0 122 128" id="face-3" xmlns="http://www.w3.org/2000/svg"><circle cx="60.806" cy="60.806" r="60.806" transform="matrix(-1 0 0 1 122 .91)"/><path d="M55.527 28.75s-26.43 4.137-24.425 41.803c.007.14-3.056 2.174-3.296 2.391-2.136 1.932-3.928 4.407-4.711 7.301-2.79 10.308 7.186 20.928 15.253 23.747 3.014 1.053 6.199 1.564 9.39 1.657 20.747.604 48.215-12.584 49.626-38.341.05-.924.063-1.85.04-2.772-.126-4.89-1.306-9.654-3.085-14.076.001 0-11.546-28.645-38.792-21.71Z"/><path d="M30.433 70.95c.286.7.571 1.597.651 2.11.34 2.199-.412 4.47-1.72 6.102-1.24 1.55-3.011 2.556-4.727 2.936-.579.128-1.28.194-1.893.214.646-6.368 5.829-10.19 7.689-11.363ZM67.685 87.689c-4.908-1.055-7.954-6.229-6.803-11.555 1.15-5.327 6.062-8.79 10.97-7.734 4.908 1.055 7.953 6.228 6.803 11.555-1.15 5.326-6.062 8.789-10.97 7.734Z" opacity=".5"/><path opacity=".3" d="M43.653 72.79s-4.192-3.989-7.438-.238l7.438.239Z"/><path d="M82.745 92.675c13.95 6.993 26.618-10.554 22.565-20.415-2.585-6.29-10.129-6.778-14.502-1.03-2.58 3.391-4.67 7.727-5.856 11.874"/><path opacity=".3" d="M94.241 77.017c-1.796 1.828-3.24 4.539-5.014 6.051.329-2.53.853-5.232 2.082-7.512 1.248-2.316 3.516-4.224 5.825-4.068 2.862.195 5.217 3.53 5.519 6.553-.18-1.81-3.818-3.033-5.206-2.862-2.176 4.101-3.02 12.183-3.02 12.183-1.81-4.575-1.075-8.173-.186-10.345Z"/><path d="M39.077 82.45c-1.88.053-3.682-.485-5.235-2.098-.812-.844-1.636-1.308-2.801-.587-2.79 1.728-3.447 6.046-2.697 8.94.823 3.177 3.304 5.738 6.162 7.408 7.693 4.494 13.593 3.483 21.464.61 6.196-2.261 14.572-6.818 12.449-14.662-2.63-9.71-13.961-5.048-20.355-2.428-2.715 1.113-5.952 2.734-8.987 2.818Z"/><mask id="fa" maskUnits="userSpaceOnUse" x="28" y="76" width="41" height="24"><path d="M39.076 82.45c-1.88.053-3.682-.485-5.235-2.098-.812-.844-1.636-1.308-2.801-.587-2.79 1.728-3.447 6.046-2.697 8.94.823 3.177 3.304 5.738 6.162 7.408 7.692 4.494 13.593 3.483 21.464.61 6.196-2.26 14.572-6.818 12.449-14.662-2.63-9.71-13.962-5.048-20.355-2.428-2.715 1.113-5.952 2.734-8.987 2.818Z"/></mask><g mask="url(#fa)"><path fill-rule="evenodd" clip-rule="evenodd" d="M64.74 93.238 56.686 72.91l-1.121.444 8.052 20.327 1.121-.444Zm-16.547 6.567-5.562-21.329-1.166.305 5.561 21.329 1.167-.305Zm-16.554-5.15 3.07-15.637-1.184-.232-3.069 15.637 1.183.233Z"/></g><path d="M48.517 67.79c2.694-1.769 5.771-1.608 7.544-1.161.201.05.362-.204.217-.352-3.82-3.907-6.753-1.16-8.059 1.267-.098.183.124.36.298.247ZM32.302 66.424c.003 1.6.727 3.318 2.58 3.12 1.556-.165 1.953-2.207 1.95-3.212-.003-1.758-.883-3.42-2.168-3.422-1.382-.002-2.365 1.914-2.362 3.514ZM49.487 54.045c2.75-.447 5.696.58 7.674 2.664.638.672.816 1.864.15 2.623-.616.702-1.736.917-2.418.196a7.681 7.681 0 0 0-.645-.61c-.07-.059-.266-.164-.328-.25a7.55 7.55 0 0 0-1.29-.673c-.117-.022-.251-.085-.358-.114a6.995 6.995 0 0 0-1.164-.216l-.104-.009c-.135 0-.27-.002-.405.004a7.346 7.346 0 0 0-.857.09c-.889.144-1.81-.73-1.837-1.691-.028-1.058.63-1.859 1.582-2.014ZM31.027 57.203c.998-1.374 2.465-2.276 4.048-2.537.427-.07.926.093 1.26.378.328.28.603.776.632 1.238.03.48-.066.994-.365 1.371-.304.383-.685.626-1.148.703-.077.013-.15.034-.226.05a4.557 4.557 0 0 0-.649.284c-.24.162-.463.346-.673.552-.068.082-.14.16-.204.247a1.767 1.767 0 0 1-1.148.703c-.418.056-.937-.078-1.26-.38-.333-.31-.601-.743-.632-1.237-.03-.493.075-.974.365-1.372Z"/><path d="M97.46 64.588c.023.923.01 1.85-.04 2.774-7.662 1.3-11.29 9.508-12.147 13.449 0 0-2.28.133-2.816-.302-2.816-1.474-7.825-7.517-5.33-19.899 1.206-5.627.402-10.108-9.455-17.084-9.856-6.976-25.546-2.613-28.764 0-2.575 2.09-3.81 2.88-4.105 3.015 6.873-15.586 20.78-17.764 20.78-17.764 27.247-6.941 39.06 20.903 39.345 21.615 1.779 4.426 2.406 9.301 2.532 14.196Z"/><path d="M28.247 27.245c6.115 2.251 10.259 11.658 11.465 15.678 5.733-2.814 9.455-3.015 15.49-3.216-.671-2.144 7.744-8.643 16.293-7.638 10.886 1.28 17.4 9.045 17.902 10.05l6.035-6.834c-18.024-30.873-52.3-18.224-67.185-8.04Z"/><path d="M28.247 27.245c6.115 2.251 10.259 11.658 11.465 15.677 5.733-2.813 9.455-3.014 15.49-3.215-.671-2.144 7.744-8.643 16.293-7.638 10.886 1.28 17.4 9.045 17.902 10.05l6.035-6.834C90.402 29.623 76 19.446 58.62 24.029l-30.374 3.216Z"/><path d="M28.247 27.245c6.115 2.251 10.259 11.658 11.466 15.678 5.733-2.814 9.454-3.015 15.489-3.216-.805-6.593 3.553-13.635 5.029-16.18-8.75-4.422-27.944.954-31.984 3.718Z"/><path fill-rule="evenodd" clip-rule="evenodd" d="m21.419 64.337 9.856-.354.1-2.11-10.001.455.045 2.01Z"/><path fill-rule="evenodd" clip-rule="evenodd" d="M56.576 51.768c5.465.861 9.261 6.464 8.286 12.661-.976 6.198-6.31 10.361-11.775 9.5-5.466-.862-9.262-6.464-8.286-12.661.976-6.198 6.31-10.361 11.775-9.5ZM67 62.255c-.104-6.16-4.198-11.54-10.113-12.472-6.699-1.056-12.929 4.037-14.052 11.175l-.001.004a7.146 7.146 0 0 0-.673-.233c-.73-.213-1.651-.343-2.61-.143-.122-2.512-.853-4.819-2.04-6.64-1.478-2.265-3.702-3.825-6.346-3.963-2.64-.138-5.052 1.174-6.823 3.257-1.772 2.084-2.953 4.986-3.177 8.21-.224 3.223.545 6.234 2.02 8.497 1.477 2.264 3.701 3.824 6.346 3.962 2.64.138 5.052-1.174 6.823-3.257 1.726-2.03 2.892-4.838 3.158-7.963.689-.282 1.419-.225 2.093-.03.42.123.787.292 1.054.435-.047 6.304 4.089 11.87 10.114 12.82 6.7 1.056 12.93-4.037 14.053-11.175.023-.144.043-.288.061-.431l17.365-2.8c3.257-.45 6.509-.3 8.91.506 2.409.81 3.68 3.786 3.719 5.634l1.99-.047c-.064-3.074-2.295-6.56-5.076-7.494-2.785-.935-6.37-1.066-9.82-.587l-.01.001-16.965 2.734Zm-31.153-7.201c1.213 1.86 1.896 4.424 1.699 7.253-.197 2.83-1.231 5.311-2.7 7.039-1.47 1.728-3.323 2.655-5.207 2.556-1.879-.098-3.58-1.207-4.79-3.064-1.213-1.859-1.896-4.424-1.699-7.253.197-2.83 1.231-5.31 2.7-7.038 1.47-1.729 3.323-2.656 5.206-2.557 1.88.098 3.58 1.207 4.791 3.064Z"/></svg><svg viewBox="0 0 38 38" id="planet" xmlns="http://www.w3.org/2000/svg"><path d="M18.52 32.41c7.67 0 13.89-6.22 13.89-13.89 0-7.671-6.22-13.89-13.89-13.89-7.671 0-13.89 6.219-13.89 13.89 0 7.67 6.218 13.89 13.89 13.89Z"/><path d="m7.174 26.534 1.69-1.02a1.157 1.157 0 0 0 .559-.984l.029-5.227c.001-.219.064-.432.182-.617l2.87-4.499a1.157 1.157 0 0 1 1.655-.315l2.844 2.06c.241.175.54.25.835.21l4.555-.616c.279-.038.535-.177.72-.39l3.205-3.704c.195-.225.295-.516.281-.813l-.169-3.516M27.065 29.47l-1.553-1.556a1.157 1.157 0 0 0-.525-.302l-3.105-.815a1.157 1.157 0 0 1-.851-1.288l.345-2.343a1.158 1.158 0 0 1 .7-.9l4.407-1.832a1.157 1.157 0 0 1 1.225.215l3.602 3.294"/></svg></svg>