<svg width="122" height="128" viewBox="0 0 122 128" fill="none" xmlns="http://www.w3.org/2000/svg">
<circle cx="60.8063" cy="60.8063" r="60.8063" transform="matrix(-1 0 0 1 122 0.910645)" fill="#CDCCFF"/>
<path d="M55.5271 28.7508C55.5271 28.7508 29.0979 32.8868 31.1021 70.5533C31.1094 70.6929 28.0463 72.7269 27.8063 72.9442C25.6704 74.8763 23.8784 77.3508 23.0947 80.2453C20.3043 90.5527 30.2807 101.173 38.3484 103.992C41.3618 105.045 44.547 105.556 47.7384 105.649C68.4853 106.253 95.9531 93.0647 97.3638 67.308C97.4144 66.3838 97.4268 65.4587 97.4031 64.5358C97.278 59.6452 96.0979 54.8822 94.3192 50.4598C94.32 50.46 82.7735 21.815 55.5271 28.7508Z" fill="#FFE4C0"/>
<g style="mix-blend-mode:multiply" opacity="0.5">
<path d="M30.4329 70.9493C30.7189 71.6508 31.0043 72.5471 31.084 73.0598C31.424 75.2586 30.6715 77.5295 29.3649 79.1622C28.1244 80.7125 26.3528 81.7181 24.6374 82.0976C24.0583 82.2258 23.3571 82.2917 22.7439 82.3124C23.3901 75.9441 28.5729 72.1218 30.4329 70.9493Z" fill="#FEB3A4"/>
</g>
<g style="mix-blend-mode:multiply" opacity="0.5">
<path d="M67.6848 87.6886C62.7769 86.6335 59.731 81.4601 60.8817 76.1336C62.0323 70.807 66.9438 67.3444 71.8517 68.3995C76.7596 69.4547 79.8055 74.6281 78.6548 79.9546C77.5042 85.2811 72.5928 88.7438 67.6848 87.6886Z" fill="#FEB3A4"/>
</g>
<path opacity="0.3" d="M43.653 72.7909C43.653 72.7909 39.4606 68.8012 36.2149 72.5523L43.653 72.7909Z" fill="#633B1D"/>
<path d="M82.7452 92.6754C96.6946 99.6684 109.363 82.1207 105.31 72.2596C102.725 65.9696 95.1815 65.4824 90.8083 71.2296C88.2274 74.6215 86.1385 78.9569 84.9519 83.104" fill="#FFE4C0"/>
<path opacity="0.3" d="M94.241 77.0168C92.4452 78.8448 91.0013 81.5558 89.2271 83.0683C89.5558 80.5381 90.0799 77.8362 91.3089 75.5559C92.5567 73.2399 94.8253 71.3317 97.1344 71.4884C99.9961 71.6827 102.351 75.0171 102.653 78.0406C102.473 76.2312 98.8355 75.0076 97.447 75.1793C95.2714 79.2802 94.4269 87.3619 94.4269 87.3619C92.6172 82.7873 93.3517 79.1887 94.241 77.0168Z" fill="#633B1D"/>
<path d="M39.0766 82.4508C37.1969 82.5029 35.3945 81.9652 33.8422 80.3516C33.03 79.5081 32.2063 79.0437 31.0409 79.7653C28.2508 81.4934 27.5939 85.8107 28.3439 88.7054C29.1673 91.8818 31.6478 94.4426 34.5064 96.1128C42.1985 100.607 48.0986 99.5956 55.9699 96.7227C62.1657 94.462 70.5421 89.9047 68.4188 82.0614C65.7895 72.3504 54.4575 77.013 48.0636 79.6326C45.3488 80.746 42.1119 82.3665 39.0766 82.4508Z" fill="white"/>
<mask id="mask0_9708_297" style="mask-type:alpha" maskUnits="userSpaceOnUse" x="28" y="76" width="41" height="24">
<path d="M39.0756 82.4508C37.1959 82.5029 35.3935 81.9652 33.8412 80.3516C33.029 79.5081 32.2053 79.0437 31.0399 79.7653C28.2498 81.4934 27.5929 85.8107 28.3429 88.7054C29.1663 91.8818 31.6468 94.4426 34.5054 96.1128C42.1975 100.607 48.0976 99.5957 55.9689 96.7227C62.1647 94.4621 70.5411 89.9047 68.4178 82.0614C65.7885 72.3504 54.4565 77.013 48.0626 79.6326C45.3478 80.746 42.1109 82.3665 39.0756 82.4508Z" fill="white"/>
</mask>
<g mask="url(#mask0_9708_297)">
<path fill-rule="evenodd" clip-rule="evenodd" d="M64.7393 93.2376L56.6868 72.9106L55.5659 73.3549L63.6184 93.6819L64.7393 93.2376ZM48.1932 99.8054L42.6312 78.4763L41.4645 78.7806L47.0265 100.11L48.1932 99.8054ZM31.6391 94.6555L34.7081 79.0181L33.525 78.7858L30.456 94.4232L31.6391 94.6555Z" fill="#D1D3D4"/>
</g>
<path d="M48.5166 67.7909C51.2106 66.0212 54.2882 66.1817 56.061 66.6289C56.2622 66.6796 56.423 66.4255 56.2779 66.2771C52.4576 62.3704 49.525 65.1161 48.2194 67.5438C48.1211 67.7265 48.3432 67.9048 48.5166 67.7909Z" fill="#2A1200"/>
<path d="M32.302 66.4239C32.3051 68.0239 33.0293 69.7422 34.8825 69.5447C36.4377 69.379 36.8348 67.3371 36.8328 66.332C36.8294 64.5739 35.9486 62.9129 34.6636 62.9104C33.2817 62.9078 32.2989 64.8239 32.302 66.4239Z" fill="#2A1200"/>
<path d="M49.4871 54.0448C52.2367 53.5976 55.1831 54.6251 57.161 56.7093C57.7988 57.3812 57.9772 58.5731 57.3109 59.3319C56.6953 60.0338 55.5754 60.2486 54.8928 59.5283C54.6882 59.3124 54.4746 59.1078 54.248 58.9182C54.1776 58.8591 53.9819 58.7542 53.9203 58.6671C53.886 58.6444 53.8525 58.6218 53.8174 58.5998C53.6014 58.4638 53.3793 58.3393 53.1519 58.2264C53.0215 58.1618 52.8901 58.1019 52.7569 58.0452C52.7148 58.0275 52.6727 58.0106 52.6299 57.9937C52.513 57.9733 52.3789 57.9101 52.2722 57.8809C52.1332 57.8429 51.9938 57.8096 51.8526 57.7802C51.6064 57.7289 51.3577 57.6903 51.108 57.6652C51.073 57.6617 51.0386 57.659 51.0035 57.6562C50.8688 57.6569 50.7343 57.6544 50.5992 57.6598C50.312 57.6718 50.0262 57.7038 49.7415 57.7495C48.853 57.8944 47.9316 57.0195 47.9051 56.0587C47.8773 55.001 48.5352 54.2 49.4871 54.0448Z" fill="#351700"/>
<path d="M31.0267 57.2033C32.0252 55.8292 33.4924 54.9275 35.0751 54.6657C35.5023 54.5952 36.001 54.7589 36.3341 55.044C36.6625 55.3248 36.938 55.8197 36.9667 56.2817C36.9962 56.7614 36.9015 57.2762 36.602 57.6534C36.2984 58.0359 35.9173 58.2788 35.4536 58.3561C35.3775 58.3686 35.3038 58.39 35.2281 58.4065C35.0051 58.4834 34.7894 58.5785 34.579 58.69C34.3397 58.852 34.1156 59.036 33.906 59.242C33.8378 59.3238 33.7654 59.4021 33.702 59.4891C33.4283 59.8652 32.9894 60.1331 32.5535 60.1918C32.1363 60.248 31.617 60.1138 31.2946 59.8128C30.9606 59.5012 30.6926 59.0692 30.662 58.575C30.6313 58.0824 30.7373 57.6013 31.0267 57.2033Z" fill="#351700"/>
<path d="M97.4595 64.5876C97.4832 65.5113 97.4708 66.4371 97.4202 67.3619C89.7584 68.6627 86.1297 76.8696 85.2731 80.8105C85.2731 80.8105 82.9933 80.9445 82.4569 80.509C79.6408 79.035 74.6321 72.9917 77.1264 60.6104C78.3333 54.9825 77.5287 50.5015 67.6722 43.5257C57.8158 36.5498 42.1259 40.9127 38.9075 43.5257C36.3327 45.616 35.0986 46.4066 34.8034 46.5406C41.6759 30.9549 55.5839 28.7768 55.5839 28.7768C82.8301 21.836 94.6422 49.6803 94.9284 50.3924C96.707 54.818 97.3344 59.6935 97.4595 64.5876Z" fill="#FFF4D4"/>
<path d="M28.2468 27.245C34.3618 29.4961 38.5056 38.9028 39.7125 42.9227C45.4453 40.1087 49.1666 39.9077 55.2012 39.7067C54.5307 37.5628 62.9456 31.0639 71.4945 32.0689C82.381 33.3487 88.8942 41.1137 89.3971 42.1187L95.4316 35.2848C77.4084 4.41181 43.1321 17.0612 28.2468 27.245Z" fill="#FFD355"/>
<path d="M28.2468 27.2448C34.3618 29.496 38.5056 38.9026 39.7125 42.9225C45.4453 40.1086 49.1666 39.9076 55.2012 39.7066C54.5307 37.5626 62.9456 31.0638 71.4945 32.0688C82.381 33.3485 88.8942 41.1136 89.3971 42.1186L95.4316 35.2847C90.4028 29.6233 76.0003 19.4462 58.6208 24.0289L28.2468 27.2448Z" fill="#E2A700"/>
<path d="M28.2473 27.2449C34.3623 29.4961 38.506 38.9027 39.7129 42.9226C45.4458 40.1087 49.1671 39.9077 55.2017 39.7067C54.3971 33.114 58.7554 26.0724 60.2305 23.5265C51.4803 19.1046 32.2867 24.4813 28.2473 27.2449Z" fill="#FFC00C"/>
<path fill-rule="evenodd" clip-rule="evenodd" d="M21.4188 64.3371L31.2746 63.9828L31.375 61.8723L21.3739 62.3277L21.4188 64.3371Z" fill="#007F77"/>
<path fill-rule="evenodd" clip-rule="evenodd" d="M56.5756 51.7681C62.0411 52.6294 65.8372 58.2318 64.8616 64.4293C63.8859 70.6268 58.5525 74.7903 53.087 73.9289C47.6215 73.0675 43.8254 67.4652 44.8011 61.2677C45.7767 55.0702 51.1101 50.9067 56.5756 51.7681ZM67.001 62.2553C66.8966 56.0953 62.8027 50.7147 56.8882 49.7826C50.1891 48.7268 43.9594 53.8198 42.8357 60.9579C42.8355 60.9594 42.8352 60.9608 42.835 60.9622C42.6283 60.8789 42.4028 60.7988 42.1623 60.7288C41.4311 60.5161 40.5105 60.3857 39.552 60.5859C39.4296 58.0737 38.6994 55.767 37.5113 53.9453C36.0344 51.6809 33.8104 50.1215 31.1662 49.9831C28.526 49.8449 26.1136 51.1571 24.3426 53.2402C22.5711 55.3239 21.3903 58.2262 21.1659 61.4499C20.9415 64.6733 21.7108 67.6843 23.1865 69.9469C24.6634 72.2114 26.8874 73.7707 29.5317 73.9091C32.1719 74.0473 34.5842 72.7351 36.3552 70.6521C38.0814 68.6217 39.2468 65.814 39.5128 62.6892C40.2017 62.4072 40.932 62.4638 41.6061 62.6599C42.026 62.7821 42.3929 62.9513 42.66 63.0945C42.6132 69.3984 46.749 74.9648 52.7744 75.9144C59.4735 76.9702 65.7032 71.8772 66.8269 64.739C66.8496 64.595 66.87 64.4511 66.8883 64.3075L84.2528 61.5088C87.5104 61.0579 90.762 61.2075 93.1633 62.0142C95.572 62.8233 96.8433 65.8 96.8815 67.6485L98.8711 67.6006C98.8076 64.5272 96.577 61.0412 93.7965 60.1072C91.0112 59.1716 87.4259 59.0408 83.9769 59.5195L83.9662 59.521L67.001 62.2553ZM35.8483 55.054C37.0609 56.9132 37.7437 59.478 37.5468 62.3074C37.3498 65.1365 36.3157 67.618 34.8469 69.3457C33.3774 71.0741 31.5238 72.0009 29.6405 71.9023C27.7613 71.8039 26.0609 70.6955 24.8495 68.8382C23.637 66.9791 22.9542 64.4142 23.1511 61.5849C23.348 58.7557 24.3821 56.2742 25.851 54.5465C27.3204 52.8182 29.1741 51.8913 31.0573 51.9899C32.9365 52.0883 34.637 53.1967 35.8483 55.054Z" fill="#2FBBB3"/>
</svg>
